<svg width="800" height="800" viewBox="0 0 256 256" xmlns="http://www.w3.org/2000/svg">
  <rect width="256" height="256" rx="24" fill="#0768A9"/>
  <g transform="translate(-80 -100) scale(0.9)">
    <path
      fill="#FFFFFF"
      d="m96.512 267.859 28.377-15.801 19.026-.645 64.815-41.276s20.316-5.482 20.638-5.482 12.254-7.094 12.254-7.094 24.507 16.446 24.83 16.446 55.142 24.507 55.142 24.507l44.613 29.797z"
    />
  </g>
  <g transform="translate(-80 409) scale(-0.9,1) rotate(180)">
    <path
      fill="#FFCC00"
      d="m96.512 267.859 28.377-15.801 19.026-.645 64.815-41.276s20.316-5.482 20.638-5.482 12.254-7.094 12.254-7.094 24.507 16.446 24.83 16.446 55.142 24.507 55.142 24.507l44.613 29.797z"
    />
  </g>
</svg>
